<?xml version="1.0" encoding="UTF-8" standalone="no"?>
<!-- Created with Inkscape (http://www.inkscape.org/) -->

<svg
   xmlns:dc="http://purl.org/dc/elements/1.1/"
   xmlns:cc="http://creativecommons.org/ns#"
   xmlns:rdf="http://www.w3.org/1999/02/22-rdf-syntax-ns#"
   xmlns:svg="http://www.w3.org/2000/svg"
   xmlns="http://www.w3.org/2000/svg"
   xmlns:sodipodi="http://sodipodi.sourceforge.net/DTD/sodipodi-0.dtd"
   xmlns:inkscape="http://www.inkscape.org/namespaces/inkscape"
   id="svg2"
   version="1.1"
   inkscape:version="0.92.3 (2405546, 2018-03-11)"
   xml:space="preserve"
   width="170"
   height="50"
   viewBox="0 0 170 50"
   sodipodi:docname="HeaderIcon.svg"><metadata
     id="metadata8"><rdf:RDF><cc:Work
         rdf:about=""><dc:format>image/svg+xml</dc:format><dc:type
           rdf:resource="http://purl.org/dc/dcmitype/StillImage" /><dc:title></dc:title></cc:Work></rdf:RDF></metadata><defs
     id="defs6" /><sodipodi:namedview
     pagecolor="#ffffff"
     bordercolor="#666666"
     borderopacity="1"
     objecttolerance="10"
     gridtolerance="10"
     guidetolerance="10"
     inkscape:pageopacity="0"
     inkscape:pageshadow="2"
     inkscape:window-width="1841"
     inkscape:window-height="1025"
     id="namedview4"
     showgrid="false"
     inkscape:zoom="2.1648346"
     inkscape:cx="72.149986"
     inkscape:cy="-35.146637"
     inkscape:window-x="79"
     inkscape:window-y="27"
     inkscape:window-maximized="1"
     inkscape:current-layer="g4484"
     fit-margin-top="0"
     fit-margin-left="0"
     fit-margin-right="0"
     fit-margin-bottom="0" /><g
     id="g10"
     inkscape:groupmode="layer"
     inkscape:label="ink_ext_XXXXXX"
     transform="matrix(1.25,0,0,-1.25,-0.33544888,60.246096)"><g
       id="g12"
       transform="scale(0.1,0.1)"><g
         id="g4155"
         transform="matrix(1.0492287,0,0,1.0492287,-0.13210836,153.99566)"><g
           transform="matrix(0.95308101,0,0,0.95308101,0.12591132,0.09237175)"
           id="g4484"><g
             transform="matrix(3.1985009,0,0,-3.1985009,-203.9446,483.64071)"
             id="surface559"
             style="stroke-width:3.33489585"><path
               inkscape:connector-curvature="0"
               style="fill:#0a284c;fill-opacity:1;fill-rule:nonzero;stroke:none;stroke-width:3.33489585"
               d="m 216.28516,155.63672 v -1.24219 c -3.86329,-0.35547 -3.9961,-0.57812 -4.12891,-5.28516 l -0.44531,-16.07812 c -0.13282,-4.57813 0.17968,-4.66406 4.08593,-5.01953 v -1.24609 h -7.55078 l -10.25781,22.21093 -10.12891,-22.21093 h -7.28515 v 1.24609 c 4.04297,0.39844 4.26562,0.57812 3.86719,6.35156 l -0.625,9.23828 c -0.35157,4.61719 -0.6211,6.57422 -0.83985,8.12891 -0.3125,1.86328 -1.20312,2.35156 -3.77734,2.66406 v 1.24219 h 10.34765 v -1.24219 c -2.92968,-0.3125 -3.99609,-0.62109 -4.08593,-2.75391 -0.043,-1.77734 -0.043,-3.73046 0.13281,-7.375 l 0.66797,-12.65625 h 0.0898 l 9.94922,23.71875 h 0.88672 l 10.83984,-24.33984 h 0.17578 l 0.13282,18.12109 c 0.0469,4.70704 -0.13282,4.92969 -3.73047,5.28516 v 1.24219 z m 32.55859,0 v -1.24219 c -2.88672,-0.26562 -3.46484,-0.66797 -4.88672,-4.48828 -2.84375,-7.72656 -5.81641,-16.16406 -8.57031,-23.80469 l -1.37891,0.39844 -9.19531,23.32031 c -1.55078,3.90625 -2.17578,4.17578 -4.97266,4.57422 v 1.24219 h 9.63672 v -1.24219 c -3.32812,-0.3125 -3.73047,-0.75391 -2.7539,-3.55469 0.57812,-1.86328 1.24609,-3.73047 1.95703,-5.73047 h 9.46093 c 0.97657,2.71094 1.86329,5.10938 2.44141,6.83985 0.57813,1.73437 0.17969,2.08984 -2.62109,2.44531 v 1.24219 z m -11.32422,-12.4375 h -8.17578 c 1.33203,-3.64063 2.75391,-7.50391 4.17578,-11.32422 h 0.0898 z m 46.19141,-16.43359 h -10.48438 v 1.24609 c 3.06641,0.17578 4.13281,0.7539 4.35547,2.7539 0.13281,1.24219 0.30859,3.28516 0.30859,7.3711 v 10.92578 h -0.13281 l -18.51953,-22.29687 h -6.57422 v 1.24609 c 2.08594,0.17578 3.0625,0.53125 3.95313,1.64062 0.79687,1.06641 0.88672,1.2461 0.88672,4.48828 v 9.77344 c 0,4.08594 -0.13282,6.21485 -0.26563,7.59375 -0.22266,2.17578 -1.33203,2.75391 -3.91016,2.88672 v 1.24219 h 10.52735 v -1.24219 c -3.01953,-0.17578 -4.04297,-0.71094 -4.26172,-2.97656 -0.13281,-1.28906 -0.26953,-3.41797 -0.26953,-7.50391 v -11.15234 h 0.0898 l 18.92188,23.27734 h 1.3789 v -17.90234 c 0,-4.12891 0.0859,-6.12891 0.26563,-7.46094 0.17578,-1.95312 1.24219,-2.53125 3.73047,-2.66406 z m 37.08593,0 h -10.48046 v 1.24609 c 3.0625,0.17578 4.1289,0.7539 4.35156,2.7539 0.13281,1.24219 0.3125,3.28516 0.3125,7.3711 v 10.92578 h -0.13281 L 296.32422,126.76563 H 289.75 v 1.24609 c 2.08984,0.17578 3.06641,0.53125 3.95312,1.64062 0.80079,1.06641 0.89063,1.2461 0.89063,4.48828 v 9.77344 c 0,4.08594 -0.13281,6.21485 -0.26953,7.59375 -0.22266,2.17578 -1.33203,2.75391 -3.90625,2.88672 v 1.24219 h 10.52734 v -1.24219 c -3.02344,-0.17578 -4.04297,-0.71094 -4.26562,-2.97656 -0.13282,-1.28906 -0.26563,-3.41797 -0.26563,-7.50391 v -11.15234 h 0.0899 l 18.91796,23.27734 h 1.37891 v -17.90234 c 0,-4.12891 0.0898,-6.12891 0.26563,-7.46094 0.17578,-1.95312 1.24218,-2.53125 3.73046,-2.66406 z m 37.53125,0 h -11.58984 v 1.24609 c 3.46094,0.30859 3.81641,0.53125 3.81641,4.21875 v 7.19531 h -15.14453 v -7.19531 c 0,-3.6875 0.35546,-3.91016 3.73046,-4.21875 v -1.24609 h -11.5039 v 1.24609 c 3.64453,0.30859 4,0.48828 4,4.21875 v 17.94531 c 0,3.73047 -0.35547,3.95313 -3.91016,4.21875 v 1.24219 h 11.67969 v -1.24219 c -3.64063,-0.26562 -3.99609,-0.53516 -3.99609,-4.21875 v -8.88281 h 15.14453 v 8.88281 c 0,3.73047 -0.39844,3.95313 -4.17188,4.21875 v 1.24219 h 11.90235 v -1.24219 c -3.59766,-0.26562 -3.95313,-0.48828 -3.95313,-4.21875 v -17.94531 c 0,-3.6875 0.35547,-3.91016 3.99609,-4.21875 z m 28.91407,21.67578 c -0.57422,1.77734 -1.41797,3.28906 -2.17578,4.17578 -0.97657,1.15625 -2.21875,1.51172 -5.59375,1.51172 -2.22266,0 -3.77735,-0.0469 -4.6211,-0.57813 -0.80078,-0.57812 -1.0664,-1.51172 -1.0664,-3.59766 v -8.39453 h 4.21875 c 3.86718,0 4.17578,0.26563 4.7539,3.46485 h 1.28906 v -8.53125 h -1.28906 c -0.57812,2.97656 -0.80078,3.33203 -4.79687,3.33203 h -4.17578 v -10.08203 c 0,-1.33203 0.0898,-1.42188 1.46484,-1.42188 h 3.37891 c 3.19531,0 4.39453,0.3125 5.01562,1.2461 0.57813,0.97656 1.02344,1.95312 1.42188,3.82031 l 1.28906,-0.22266 C 386.22266,130.89844 386,127.87891 386,126.76563 h -19.80859 v 1.24609 c 3.46484,0.30859 3.82031,0.4414 3.82031,4.4414 v 17.67579 c 0,3.59765 -0.35547,3.95312 -4.39844,4.26562 v 1.24219 h 21.41016 c 0.39843,-1.375 1.28515,-5.55078 1.55078,-7.01563 z m 20.875,7.19531 v -1.24219 c -3.64063,-0.26562 -3.9961,-0.48828 -3.9961,-4.30859 v -17.76563 c 0,-3.77734 0.35547,-4.04297 3.9961,-4.30859 v -1.24609 h -11.76953 v 1.24609 c 3.64453,0.26562 4,0.53125 4,4.30859 v 17.76563 c 0,3.77343 -0.35547,4.04297 -4,4.30859 v 1.24219 z m 45.03906,0 v -1.24219 c -3.86328,-0.35547 -3.99609,-0.57812 -4.12891,-5.28516 l -0.44531,-16.07812 c -0.13281,-4.57813 0.17969,-4.66406 4.08594,-5.01953 v -1.24609 h -7.55078 l -10.26172,22.21093 -10.125,-22.21093 h -7.28516 v 1.24609 c 4.04297,0.39844 4.26563,0.57812 3.86328,6.35156 l -0.62109,9.23828 c -0.35547,4.61719 -0.62109,6.57422 -0.84375,8.12891 -0.30859,1.86328 -1.19922,2.35156 -3.77344,2.66406 v 1.24219 h 10.34766 v -1.24219 c -2.92969,-0.3125 -3.9961,-0.62109 -4.08594,-2.75391 -0.0469,-1.77734 -0.0469,-3.73046 0.13281,-7.375 l 0.66797,-12.65625 h 0.0859 l 9.94922,23.71875 h 0.89062 l 10.83594,-24.33984 h 0.17969 l 0.13281,18.12109 c 0.043,4.70704 -0.13281,4.92969 -3.73047,5.28516 v 1.24219 h 11.67969"
               id="path2" /><path
               inkscape:connector-curvature="0"
               style="fill:#0a284c;fill-opacity:1;fill-rule:nonzero;stroke:none;stroke-width:3.33489585"
               d="m 209.84766,88.359375 h -10.57032 v 1.246094 c 3.10938,0.21875 4.03907,0.753906 4.3086,2.484375 0.17578,1.378906 0.30859,3.242187 0.30859,7.332031 v 3.375005 c 0,7.32812 -2,12.65625 -8.39453,12.65625 -5.50781,0 -8.35156,-4.08594 -8.35156,-11.23438 V 94.089844 c 0,-3.996094 0.35547,-4.265625 3.86718,-4.484375 v -1.246094 h -11.5039 v 1.246094 c 3.50781,0.308593 3.86328,0.488281 3.86328,4.484375 v 11.105466 c 0,5.19532 1.24219,8.52735 3.90625,10.57032 1.95703,1.50781 4.53125,2.13281 7.10937,2.13281 2.92969,0 5.90625,-0.9336 7.94922,-3.06641 2.57813,-2.71094 3.375,-6.48437 3.375,-11.72656 v -3.683595 c 0,-4.089844 0.0898,-6 0.22266,-7.199219 0.22266,-1.820312 1.24609,-2.441406 3.91016,-2.617187 z m 35.57812,0 h -10.48437 v 1.246094 c 3.0664,0.175781 4.13281,0.753906 4.35546,2.75 0.13282,1.246093 0.3086,3.289062 0.3086,7.375 v 10.925781 h -0.13281 L 220.94922,88.359375 h -6.57031 v 1.246094 c 2.08593,0.175781 3.0625,0.53125 3.94921,1.640625 0.80079,1.066406 0.89063,1.246094 0.89063,4.488281 v 9.769535 c 0,4.08593 -0.13281,6.21875 -0.26563,7.59765 -0.22265,2.17578 -1.33593,2.75391 -3.91015,2.88672 v 1.24219 h 10.52734 v -1.24219 c -3.01953,-0.17969 -4.04297,-0.71094 -4.26562,-2.97656 -0.13282,-1.28906 -0.26563,-3.42188 -0.26563,-7.50781 V 94.355469 h 0.0898 l 18.92187,23.277341 h 1.375 V 99.730469 c 0,-4.128907 0.0898,-6.128907 0.26563,-7.460938 0.17968,-1.957031 1.24609,-2.53125 3.73437,-2.664062 z m 18.60938,28.871095 v -1.24219 c -3.64454,-0.26562 -4,-0.48828 -4,-4.30859 V 93.910156 c 0,-3.773437 0.35546,-4.039062 4,-4.304687 v -1.246094 h -11.76954 v 1.246094 c 3.64063,0.265625 3.9961,0.53125 3.9961,4.304687 v 17.769534 c 0,3.77344 -0.35547,4.04297 -3.9961,4.30859 v 1.24219 z m 34.15625,-28.871095 h -9.9961 v 1.246094 c 3.59766,0.441406 3.86328,0.796875 3.01953,3.328125 -1.41797,4.445312 -4.79687,13.105466 -7.01562,18.656246 h -0.0899 c -2.97656,-7.64062 -6.21875,-16.210934 -7.37109,-19.367184 -0.71094,-1.953125 -0.53516,-2.261718 2.61719,-2.617187 v -1.246094 h -10.87891 v 1.289063 c 2.6211,0.222656 3.32813,0.578124 4.61719,3.910156 2.57812,6.4375 6.21875,15.988286 9.19531,24.117186 h 1.375 c 3.33203,-9.15234 8.03906,-20.433592 9.23828,-23.320311 1.69141,-3.996094 2.26953,-4.394531 5.28907,-4.75 z m 24.60546,21.675785 c -0.57812,1.77734 -1.42187,3.28515 -2.17968,4.17578 -0.97657,1.15234 -2.21875,1.51172 -5.59375,1.51172 -2.22266,0 -3.77735,-0.0469 -4.6211,-0.57813 -0.79687,-0.57812 -1.0625,-1.51172 -1.0625,-3.59765 v -8.39454 h 4.21875 c 3.86328,0 4.17188,0.26563 4.75,3.46094 h 1.28907 v -8.527342 h -1.28907 c -0.57812,2.976562 -0.79687,3.332032 -4.79687,3.332032 h -4.17188 V 91.335938 c 0,-1.332032 0.0859,-1.421876 1.46485,-1.421876 h 3.375 c 3.19922,0 4.39453,0.3125 5.01953,1.242188 0.57812,0.980469 1.01953,1.957031 1.41797,3.820312 l 1.28906,-0.21875 c -0.13281,-2.265624 -0.35547,-5.289062 -0.35547,-6.398437 h -19.80859 v 1.246094 c 3.46484,0.308593 3.82031,0.441406 3.82031,4.441406 v 17.675785 c 0,3.59765 -0.35547,3.95312 -4.39844,4.26562 v 1.24219 h 21.41016 c 0.39844,-1.375 1.28906,-5.55078 1.55469,-7.01563 z m 34.51172,6.39453 c -0.98047,-0.26563 -2,-0.75391 -3.19922,-2.08594 -1.0664,-1.15625 -2,-2.30859 -3.59765,-4.62109 -1.33203,-1.9961 -3.19922,-4.97266 -3.95313,-6.4375 3.28516,-1.42188 5.64063,-3.777348 5.64063,-7.59766 0,-2.664062 -1.15625,-4.664062 -2.92969,-5.816406 -1.69141,-1.109375 -3.86719,-1.511719 -7.10937,-1.511719 h -11.01563 v 1.246094 c 3.46484,0.308593 3.82031,0.441406 3.82031,4.21875 v 17.855471 c 0,3.77344 -0.39843,4.04297 -4.03906,4.30859 v 1.24219 h 11.67969 v -1.24219 c -3.55469,-0.26562 -3.95313,-0.53515 -3.95313,-4.30859 v -7.0625 h 1.42188 c 2.30859,0 3.0625,0.53125 3.82031,1.77734 1.33203,2.17578 2.92969,4.92969 4.48438,7.10547 2,2.88672 3.86328,3.86328 7.19531,4.04297 0.53515,0.043 1.02344,0.043 1.55469,0.043 z M 338.65234,103.15234 V 92.222656 c 0,-1.199218 0.17578,-1.730468 0.48828,-1.953125 0.35547,-0.265625 1.10938,-0.445312 2.39844,-0.445312 3.375,0 6.52735,1.777343 6.52735,6.574219 0,2.398437 -0.70704,4.175782 -2.44141,5.507812 -1.10938,0.89063 -2.57422,1.24609 -4.83984,1.24609 z m 39.88282,-8.30859 c -0.35157,-2.796875 -0.57422,-4.53125 -0.75391,-6.128906 -1.6875,-0.53125 -3.55078,-1.019532 -5.59375,-1.019532 -5.73047,0 -9.15234,3.640626 -9.15234,7.90625 0,5.015628 4.48828,7.238278 7.32812,8.749998 3.33203,1.77735 5.77734,3.32813 5.77734,6.61719 0,3.24219 -2,5.32813 -5.33203,5.32813 -4.57422,0 -6.57422,-4.48438 -7.28515,-7.19532 l -1.28907,0.3125 c 0.26954,2.13282 0.84375,5.94922 1.20313,6.88282 0.39844,0.22265 1.06641,0.53515 2.17578,0.93359 1.10938,0.3125 2.53125,0.66797 4.35156,0.66797 5.90625,0 9.85938,-3.73438 9.85938,-8.39453 0,-4.97657 -4.21875,-7.0625 -7.6836,-8.83985 C 368.63281,98.84375 366.5,97.332031 366.5,94.089844 c 0,-2.398438 1.51172,-4.886719 4.92969,-4.886719 3.86718,0 5.01953,3.066406 5.82031,5.90625 z m 21.54296,22.38672 v -1.24219 c -3.64062,-0.26562 -3.99609,-0.48828 -3.99609,-4.30859 V 93.910156 c 0,-3.773437 0.35547,-4.039062 3.99609,-4.304687 v -1.246094 h -11.76953 v 1.246094 c 3.64063,0.265625 3.9961,0.53125 3.9961,4.304687 v 17.769534 c 0,3.77344 -0.35547,4.04297 -3.9961,4.30859 v 1.24219 z m 31.66797,-22.121095 c -0.22265,-2.574219 -0.4414,-5.816406 -0.4414,-7.859375 h -0.9336 c -0.71093,0.84375 -1.0664,1.109375 -2.26562,1.109375 H 410.5625 c -1.24609,0 -1.82422,-0.08984 -2.44531,-1.109375 h -0.88672 c -0.0899,2.441406 -0.3125,5.328125 -0.53516,7.996094 h 1.28906 c 0.53516,-1.957032 0.88672,-3.199219 1.42188,-3.957032 0.57812,-1.019531 1.46484,-1.375 5.15234,-1.375 h 2.75391 v 21.855468 c 0,3.50781 -0.35547,3.95313 -4.39844,4.21875 v 1.24219 h 12.7461 v -1.24219 c -4.21875,-0.26562 -4.57422,-0.71094 -4.57422,-4.21875 V 89.914062 h 3.15625 c 3.32812,0 4.08593,0.3125 4.79687,1.375 0.53125,0.714844 0.9336,1.824219 1.42188,3.957032 z m 30.64844,22.121095 v -1.24219 c -2.88672,-0.26562 -3.46484,-0.66797 -4.88672,-4.48828 -2.84375,-7.72656 -5.8164,-16.167969 -8.57031,-23.804688 l -1.37891,0.398438 -9.19531,23.31641 c -1.55469,3.91015 -2.17578,4.17578 -4.97266,4.57812 v 1.24219 h 9.63672 v -1.24219 c -3.33203,-0.3125 -3.73047,-0.75781 -2.7539,-3.55469 0.57812,-1.86718 1.24609,-3.73046 1.95703,-5.73046 h 9.46094 c 0.97656,2.71093 1.86328,5.10937 2.4414,6.83984 0.57813,1.73437 0.17578,2.08984 -2.62109,2.44531 v 1.24219 z m -11.32812,-12.4375 h -8.17188 c 1.33203,-3.64063 2.75391,-7.503908 4.17578,-11.32422 h 0.0899 z m 1.33203,-22.828126 c -1.10938,0 -2.08594,0.976562 -2.08594,2.21875 0,1.15625 0.97656,2.132812 2.08594,2.132812 1.20312,0 2.13281,-0.976562 2.13281,-2.132812 0,-1.242188 -0.92969,-2.21875 -2.13281,-2.21875 m -8.4375,0.04297 c -1.15235,0 -2.13282,0.933594 -2.13282,2.175782 0,1.15625 0.98047,2.132812 2.13282,2.132812 1.19922,0 2.08984,-0.976562 2.08984,-2.132812 0,-1.242188 -0.89062,-2.175782 -2.08984,-2.175782 m 45.83984,13.101563 C 489.57812,92.535156 489.35547,89.292969 489.35547,87.25 h -0.9336 c -0.71093,0.84375 -1.0664,1.109375 -2.26562,1.109375 h -17.54297 c -1.24609,0 -1.82422,-0.08984 -2.44531,-1.109375 h -0.88672 c -0.0898,2.441406 -0.3125,5.328125 -0.53516,7.996094 h 1.28907 c 0.53515,-1.957032 0.89062,-3.199219 1.42187,-3.957032 0.57813,-1.019531 1.46484,-1.375 5.15234,-1.375 h 2.75391 v 21.855468 c 0,3.50781 -0.35547,3.95313 -4.39844,4.21875 v 1.24219 h 12.75 v -1.24219 c -4.22265,-0.26562 -4.57422,-0.71094 -4.57422,-4.21875 V 89.914062 h 3.15235 c 3.33203,0 4.08594,0.3125 4.79687,1.375 0.53125,0.714844 0.9336,1.824219 1.42188,3.957032 l 1.28906,-0.136719"
               id="path4" /><path
               inkscape:connector-curvature="0"
               style="fill:#0a284c;fill-opacity:1;fill-rule:nonzero;stroke:none;stroke-width:3.33489585"
               d="m 151.86719,77.308594 v -6.375 h 2.77734 v -4.390625 h -4.39062 v 2.777343 h -10.94922 v -2.761718 h -4.39063 v 4.390625 h 2.79297 v 9.148437 h -4.69922 v -2.757812 h -2.77344 v -18.65625 h 2.74219 v -4.390625 h -4.39062 v 2.742187 h -5.41016 V 54.4375 l -0.008,-0.109375 c -0.28125,-1.691406 -1.66016,-2.875 -3.36719,-2.875 -1.75,0.01172 -3.13281,1.214844 -3.36719,2.929687 v 2.652344 h -5.45703 v -2.742187 h -4.39062 v 4.390625 h 2.74219 v 18.65625 h -2.77344 v 2.757812 h -4.69922 v -9.148437 h 2.79297 v -4.390625 h -4.39063 v 2.761718 H 89.308594 v -2.777343 h -4.390625 v 4.390625 h 2.773437 v 6.375 h -2.789062 v 4.390625 h 23.249996 v -2.757813 h 2.77735 V 58.683594 h 0.0469 v -0.04297 h 5.45703 l -0.004,2.695313 h 6.74609 v -2.695313 h 5.41016 v 0.04297 h 0.043 l 0.004,20.257812 h 2.77735 v 2.757813 h 23.25 v -4.390625 z m -62.570315,2.789062 v -9.164062 h 0.01172 v -0.01172 h 10.945315 v 9.175781 z m 32.546875,-20.09375 h -4.07812 v -5.484375 c 0.15625,-1.03125 0.97265,-1.722656 2.05078,-1.730469 1.02734,0 1.83203,0.683594 2.02734,1.707032 z m 17.46484,20.09375 v -9.175781 h 10.94532 v 0.01172 h 0.0117 v 9.164062 h -10.95703"
               id="path6" /><path
               inkscape:connector-curvature="0"
               style="fill:#0a284c;fill-opacity:1;fill-rule:nonzero;stroke:none;stroke-width:3.33489585"
               d="m 166.09766,123.70703 5.97265,-9.35547 -4.2539,-9.14453 -5.39844,1.39063 0.64062,-18.156254 h -1.26953 l -0.69531,19.808594 6.01562,-1.55078 3.51954,7.55859 -5.13282,8.03125 -5.25781,-1.08593 -5.22266,16.82031 5.03907,1.73437 -2.79688,11.55469 -11.5,0.44141 -1.71484,-3.07032 -14.21094,5.80078 1.58203,4.24219 -11.64062,7.71875 -11.76953,-7.71484 1.65234,-4.30469 -14.234375,-5.91406 -1.726563,3.17578 -11.339843,-0.3125 -2.929688,-11.59375 5.019531,-1.88281 -5.214843,-16.80078 -5.183594,1.16797 -5.125,-8.08594 3.445313,-7.53516 6.019531,1.64063 L 77.6875,88.441406 h -1.269531 l 0.640625,18.167974 -5.398438,-1.46875 -4.175781,9.13281 5.972656,9.42578 4.910157,-1.10938 4.515624,14.54297 -4.964843,1.85938 3.445312,13.625 13.074219,0.35937 1.550781,-2.85937 12.042969,5.00781 -1.57812,4.10547 13.32421,8.73437 13.17578,-8.73437 -1.5039,-4.03516 12.03515,-4.91797 1.54688,2.77344 13.23047,-0.50781 3.29687,-13.60938 -4.96875,-1.70703 4.51563,-14.54687 4.99219,1.02734"
               id="path8" /><path
               inkscape:connector-curvature="0"
               style="fill:#0a284c;fill-opacity:1;fill-rule:nonzero;stroke:none;stroke-width:3.33489585"
               d="m 164.32812,88.441406 -0.57812,16.500004 4.77344,-1.23047 4.99218,10.73828 -6.82031,10.67969 -4.71875,-0.97266 -3.80469,12.26562 4.89454,1.6836 -3.79297,15.67187 -14.97266,0.57422 -1.37891,-2.46875 -9.85156,4.01953 1.42578,3.82813 -14.71875,9.75781 -14.8789,-9.75781 1.5039,-3.91016 -9.843746,-4.08984 -1.375,2.53906 -14.820313,-0.41016 -3.953125,-15.66015 4.902344,-1.83594 -3.808594,-12.27344 -4.644531,1.04688 -6.820313,-10.76563 4.917969,-10.74218 4.773438,1.30078 -0.582031,-16.488284 h -1.269532 l 0.523438,14.812504 -4.152344,-1.13282 -5.648438,12.34766 7.667969,12.10156 4.371094,-0.98828 3.105469,10.01563 -4.84375,1.8164 4.46875,17.6875 16.554687,0.45703 1.203125,-2.21875 7.644534,3.17969 -1.42578,3.70703 16.43359,10.77735 16.25391,-10.77344 -1.34766,-3.61719 7.67578,-3.13672 1.21094,2.16797 16.70312,-0.63672 4.29297,-17.72656 -4.82422,-1.65625 3.10157,-9.99609 4.44921,0.91797 7.66016,-12.00391 -5.73047,-12.32031 -4.15234,1.07031 0.52344,-14.851564 h -1.26954"
               id="path10" /><path
               inkscape:connector-curvature="0"
               style="fill:#0a284c;fill-opacity:1;fill-rule:nonzero;stroke:none;stroke-width:3.33489585"
               d="m 85.300781,101.60547 0.554688,12.00781 h 7.222656 v -12.00781 h -7.777344"
               id="path12" /><path
               inkscape:connector-curvature="0"
               style="fill:#0a284c;fill-opacity:1;fill-rule:nonzero;stroke:none;stroke-width:3.33489585"
               d="m 95.65625,103.03906 h 9.13672 v 9.13672 h -9.13672 z m -1.4375,10.57422 h 12.00781 V 101.60547 H 94.21875 v 12.00781"
               id="path14-3" /><path
               inkscape:connector-curvature="0"
               style="fill:#0a284c;fill-opacity:1;fill-rule:nonzero;stroke:none;stroke-width:3.33489585"
               d="m 146.8125,101.60547 v 12.00781 h 7.07031 l 0.0586,-1.4375 h -5.69532 v -9.13672 h 6.05469 l 0.0586,-1.43359 h -7.54687"
               id="path16-6" /><path
               inkscape:connector-curvature="0"
               style="fill:#0a284c;fill-opacity:1;fill-rule:nonzero;stroke:none;stroke-width:3.33489585"
               d="m 89.699219,127.89844 3.378906,11.89062 v -11.89062 z m 0,0"
               id="path18-7" /><path
               inkscape:connector-curvature="0"
               style="fill:#0a284c;fill-opacity:1;fill-rule:nonzero;stroke:none;stroke-width:3.33489585"
               d="M 107.36719,139.90625 H 119.375 v -12.00781 h -12.00781 v 12.00781"
               id="path20-5" /><path
               inkscape:connector-curvature="0"
               style="fill:#0a284c;fill-opacity:1;fill-rule:nonzero;stroke:none;stroke-width:3.33489585"
               d="m 133.66406,139.90625 h 12.00781 v -12.00781 h -12.00781 v 12.00781"
               id="path22-3" /><path
               inkscape:connector-curvature="0"
               style="fill:#0a284c;fill-opacity:1;fill-rule:nonzero;stroke:none;stroke-width:3.33489585"
               d="m 95.65625,129.33203 h 9.13672 v 9.14063 h -9.13672 z m -1.4375,10.57422 h 12.00781 V 127.89844 H 94.21875 v 12.00781"
               id="path24-5" /><path
               inkscape:connector-curvature="0"
               style="fill:#0a284c;fill-opacity:1;fill-rule:nonzero;stroke:none;stroke-width:3.33489585"
               d="m 146.8125,127.89844 v 12.00781 h 0.0117 l 1.42187,-5.14063 v -5.43359 H 149.75 l 0.39844,-1.43359 h -3.33594"
               id="path26-6" /><path
               inkscape:connector-curvature="0"
               style="fill:#0a284c;fill-opacity:1;fill-rule:nonzero;stroke:none;stroke-width:3.33489585"
               d="m 121.94922,129.33203 h 9.14062 v 9.14063 h -9.14062 z m -1.43359,10.57422 h 12.00781 v -12.00781 h -12.00781 v 12.00781"
               id="path28-2" /><path
               inkscape:connector-curvature="0"
               style="fill:#0a284c;fill-opacity:1;fill-rule:nonzero;stroke:none;stroke-width:3.33489585"
               d="m 94.21875,126.76172 h 12.00781 V 114.75 H 94.21875 v 12.01172"
               id="path30-9" /><path
               inkscape:connector-curvature="0"
               style="fill:#0a284c;fill-opacity:1;fill-rule:nonzero;stroke:none;stroke-width:3.33489585"
               d="m 146.8125,114.75 v 12.01172 h 3.65234 L 153.78906,114.75 h -6.97656"
               id="path32-1" /><path
               inkscape:connector-curvature="0"
               style="fill:#0a284c;fill-opacity:1;fill-rule:nonzero;stroke:none;stroke-width:3.33489585"
               d="m 85.957031,114.75 0.410157,1.43359 h 5.277343 v 9.14063 h -2.679687 l 0.410156,1.4375 h 3.703125 V 114.75 h -7.121094"
               id="path34-2" /><path
               inkscape:connector-curvature="0"
               style="fill:#0a284c;fill-opacity:1;fill-rule:nonzero;stroke:none;stroke-width:3.33489585"
               d="m 94.21875,100.46484 h 12.00781 V 88.453125 H 94.21875 v 12.011715"
               id="path36-7" /><path
               inkscape:connector-curvature="0"
               style="fill:#0a284c;fill-opacity:1;fill-rule:nonzero;stroke:none;stroke-width:3.33489585"
               d="m 146.8125,88.453125 v 12.011715 h 7.58984 L 154.875,88.453125 h -8.0625"
               id="path38-0" /><path
               inkscape:connector-curvature="0"
               style="fill:#0a284c;fill-opacity:1;fill-rule:nonzero;stroke:none;stroke-width:3.33489585"
               d="M 107.36719,113.61328 H 119.375 v -12.00781 h -12.00781 v 12.00781"
               id="path40-9" /><path
               inkscape:connector-curvature="0"
               style="fill:#0a284c;fill-opacity:1;fill-rule:nonzero;stroke:none;stroke-width:3.33489585"
               d="m 133.66406,113.61328 h 12.00781 v -12.00781 h -12.00781 v 12.00781"
               id="path42-3" /><path
               inkscape:connector-curvature="0"
               style="fill:#0a284c;fill-opacity:1;fill-rule:nonzero;stroke:none;stroke-width:3.33489585"
               d="m 121.94922,103.03906 h 9.14062 v 9.13672 h -9.14062 z m -1.43359,10.57422 h 12.00781 v -12.00781 h -12.00781 v 12.00781"
               id="path44-6" /><path
               inkscape:connector-curvature="0"
               style="fill:#0a284c;fill-opacity:1;fill-rule:nonzero;stroke:none;stroke-width:3.33489585"
               d="m 120.51563,126.76172 h 12.00781 V 114.75 h -12.00781 v 12.01172"
               id="path46-0" /><path
               inkscape:connector-curvature="0"
               style="fill:#0a284c;fill-opacity:1;fill-rule:nonzero;stroke:none;stroke-width:3.33489585"
               d="m 108.80078,116.18359 h 9.14063 v 9.14063 h -9.14063 z m -1.43359,10.57813 H 119.375 V 114.75 h -12.00781 v 12.01172"
               id="path48-6" /><path
               inkscape:connector-curvature="0"
               style="fill:#0a284c;fill-opacity:1;fill-rule:nonzero;stroke:none;stroke-width:3.33489585"
               d="m 135.09766,116.18359 h 9.13671 v 9.14063 h -9.13671 z m -1.4336,10.57813 h 12.00781 V 114.75 h -12.00781 v 12.01172"
               id="path50-2" /><path
               inkscape:connector-curvature="0"
               style="fill:#0a284c;fill-opacity:1;fill-rule:nonzero;stroke:none;stroke-width:3.33489585"
               d="m 120.51563,100.46484 h 12.00781 V 88.453125 h -12.00781 v 12.011715"
               id="path52-6" /><path
               inkscape:connector-curvature="0"
               style="fill:#0a284c;fill-opacity:1;fill-rule:nonzero;stroke:none;stroke-width:3.33489585"
               d="m 108.80078,89.890625 h 9.14063 v 9.140625 h -9.14063 z m -1.43359,10.574215 H 119.375 V 88.457031 h -12.00781 v 12.007809"
               id="path54" /><path
               inkscape:connector-curvature="0"
               style="fill:#0a284c;fill-opacity:1;fill-rule:nonzero;stroke:none;stroke-width:3.33489585"
               d="m 135.09766,89.890625 h 9.13671 v 9.140625 h -9.13671 z m -1.4336,10.574215 h 12.00781 V 88.457031 h -12.00781 v 12.007809"
               id="path56" /><path
               inkscape:connector-curvature="0"
               style="fill:#0a284c;fill-opacity:1;fill-rule:nonzero;stroke:none;stroke-width:3.33489585"
               d="m 84.691406,88.457031 0.06641,1.433594 h 6.886719 v 9.136719 h -6.464843 l 0.06641,1.437496 h 7.835937 V 88.457031 h -8.390625"
               id="path58" /><path
               inkscape:connector-curvature="0"
               style="fill:#0a284c;fill-opacity:1;fill-rule:nonzero;stroke:none;stroke-width:3.33489585"
               d="m 94.21875,141.04687 v 0.0508 l 12.00781,5.3164 v -5.36719 H 94.21875"
               id="path60" /><path
               inkscape:connector-curvature="0"
               style="fill:#0a284c;fill-opacity:1;fill-rule:nonzero;stroke:none;stroke-width:3.33489585"
               d="M 120.51563,141.04687 V 152.25 l 12.00781,-5.35938 v -5.84375 h -12.00781"
               id="path62" /><path
               inkscape:connector-curvature="0"
               style="fill:#0a284c;fill-opacity:1;fill-rule:nonzero;stroke:none;stroke-width:3.33489585"
               d="m 107.36719,141.04687 v 5.8711 l 1.43359,0.63672 v -5.07422 h 9.14063 v 9.11719 l 1.43359,0.63671 v -11.1875 h -12.00781"
               id="path64" /><path
               inkscape:connector-curvature="0"
               style="fill:#0a284c;fill-opacity:1;fill-rule:nonzero;stroke:none;stroke-width:3.33489585"
               d="m 133.66016,141.04687 v 5.33594 l 1.4375,-0.64062 v -3.26172 h 7.30859 l 3.21484,-1.4336 h -11.96093"
               id="path66" /></g></g></g></g></g></svg>